<?xml version="1.0" standalone="no"?>
<!DOCTYPE svg PUBLIC "-//W3C//DTD SVG 20010904//EN"
 "http://www.w3.org/TR/2001/REC-SVG-20010904/DTD/svg10.dtd">
<svg version="1.0" xmlns="http://www.w3.org/2000/svg"
 width="1129.000000pt" height="1129.000000pt" viewBox="0 0 1129.000000 1129.000000"
 preserveAspectRatio="xMidYMid meet">
<metadata>
Created by potrace 1.16, written by Peter Selinger 2001-2019
</metadata>
<g transform="translate(0.000000,1129.000000) scale(0.100000,-0.100000)"
fill="#00bf63" stroke="none">
<path d="M4485 11040 c11 -5 41 -9 68 -9 26 -1 47 -5 47 -11 0 -6 -27 -10 -60
-10 -43 0 -62 -4 -66 -14 -3 -8 -27 -17 -57 -21 -29 -4 -64 -14 -79 -21 -15
-8 -52 -14 -83 -14 -33 0 -54 -4 -50 -9 6 -10 -46 -23 -96 -25 -15 -1 -25 -3
-23 -5 8 -8 -49 -31 -76 -31 -15 0 -41 -7 -56 -15 -16 -8 -39 -15 -52 -15 -13
0 -30 -7 -38 -15 -9 -8 -27 -18 -42 -21 -15 -3 -41 -12 -59 -20 -17 -8 -40
-14 -51 -14 -11 0 -22 -6 -25 -13 -2 -7 -28 -19 -56 -26 -28 -7 -53 -17 -57
-22 -3 -5 -16 -9 -28 -9 -13 0 -29 -7 -36 -15 -7 -8 -25 -15 -41 -15 -16 0
-29 -4 -29 -9 0 -5 -17 -16 -37 -25 -21 -9 -46 -21 -55 -26 -10 -6 -26 -10
-37 -10 -10 0 -24 -7 -31 -15 -7 -8 -21 -15 -31 -15 -10 0 -21 -4 -24 -10 -8
-12 -164 -90 -182 -90 -7 0 -13 -4 -13 -8 0 -5 -26 -22 -57 -38 -32 -16 -64
-35 -71 -41 -14 -13 -27 -17 -50 -14 -7 1 -11 -4 -10 -10 2 -7 -9 -19 -24 -26
-16 -8 -28 -18 -28 -24 0 -5 -11 -9 -25 -9 -15 0 -25 -6 -25 -14 0 -12 -34
-30 -53 -27 -4 1 -10 -6 -13 -14 -4 -8 -12 -15 -19 -15 -7 0 -15 -7 -19 -15
-3 -8 -13 -15 -21 -15 -9 0 -33 -16 -53 -35 -35 -33 -50 -40 -81 -36 -7 2 -10
-2 -6 -8 3 -6 -1 -14 -11 -18 -9 -3 -29 -18 -43 -32 -37 -37 -88 -71 -106 -71
-8 0 -14 -3 -14 -7 3 -21 -2 -33 -16 -33 -7 0 -18 -6 -22 -12 -4 -7 -26 -22
-47 -33 -22 -11 -41 -28 -44 -37 -2 -10 -11 -18 -18 -18 -8 0 -17 -7 -20 -15
-4 -8 -15 -15 -25 -15 -10 0 -18 -3 -17 -7 4 -11 -29 -42 -84 -82 -26 -19 -45
-37 -43 -41 2 -4 -8 -5 -23 -3 -20 3 -23 2 -12 -6 11 -8 2 -21 -49 -70 -35
-34 -68 -61 -72 -61 -5 0 -9 -3 -9 -7 0 -12 -78 -93 -89 -93 -5 0 -12 8 -14
18 -2 9 -3 6 -1 -8 2 -17 -8 -37 -32 -64 -19 -21 -34 -42 -34 -46 0 -4 -9 -10
-20 -13 -11 -3 -20 -12 -20 -21 0 -10 -6 -13 -15 -9 -9 3 -15 2 -14 -3 1 -5 0
-12 -1 -16 -1 -5 -3 -12 -4 -17 0 -4 -20 -27 -43 -51 -24 -23 -43 -46 -43 -50
0 -12 -60 -76 -61 -65 0 6 -6 -6 -14 -25 -7 -19 -18 -34 -24 -33 -6 2 -11 -4
-11 -12 0 -9 -15 -29 -34 -45 -19 -17 -37 -42 -40 -56 -4 -13 -11 -22 -16 -19
-6 3 -10 -1 -10 -9 0 -9 -8 -24 -17 -34 -32 -34 -53 -62 -53 -71 0 -5 -6 -16
-13 -23 -7 -7 -27 -35 -45 -62 -17 -27 -32 -46 -32 -41 0 5 -12 -15 -28 -45
-15 -30 -30 -56 -34 -58 -5 -2 -8 -10 -8 -17 0 -8 -9 -19 -20 -25 -11 -6 -20
-20 -20 -30 0 -11 -3 -20 -8 -20 -4 0 -15 -18 -25 -40 -9 -22 -21 -40 -27 -40
-5 0 -10 -9 -10 -19 0 -10 -7 -21 -15 -25 -8 -3 -15 -14 -15 -25 0 -11 -3 -21
-7 -23 -12 -5 -63 -104 -63 -121 0 -8 -4 -17 -9 -19 -11 -4 -151 -290 -151
-310 0 -8 -9 -23 -20 -33 -11 -10 -20 -25 -20 -34 0 -37 -51 -156 -60 -141 -3
5 -7 -6 -7 -26 -1 -20 -8 -50 -16 -68 -31 -64 -103 -283 -99 -298 1 -5 -2 -8
-7 -8 -5 0 -12 -19 -15 -42 -3 -24 -7 -49 -8 -55 -1 -7 -4 -13 -8 -13 -4 0
-10 -17 -13 -37 -10 -62 -12 -70 -24 -84 -6 -8 -14 -35 -17 -61 -4 -27 -11
-48 -15 -48 -5 0 -11 -30 -14 -67 -4 -38 -9 -77 -11 -88 -3 -11 -5 -24 -6 -30
-1 -5 -5 -1 -10 10 -6 14 -9 -5 -10 -60 -2 -44 -2 -84 -1 -88 1 -5 -3 -6 -9
-2 -5 3 -11 30 -11 58 -1 29 -5 66 -9 82 -4 17 -8 -78 -8 -210 -1 -210 0 -238
13 -221 8 10 19 42 24 70 16 80 21 95 16 46 -2 -25 -11 -148 -20 -275 -8 -126
-20 -266 -25 -311 -13 -102 -13 -299 0 -378 5 -33 14 -140 20 -236 18 -283 50
-501 121 -818 23 -101 39 -185 37 -187 -13 -13 -84 283 -133 554 -28 152 -33
171 -46 171 -5 0 -9 -93 -8 -227 1 -159 4 -215 10 -184 5 25 14 49 20 55 9 8
10 6 6 -6 -4 -10 -3 -18 2 -18 4 0 6 -15 4 -33 -3 -24 -2 -29 6 -17 8 11 11
11 12 3 1 -7 2 -16 3 -20 1 -5 6 -37 10 -73 5 -36 12 -68 17 -71 5 -3 12 -29
16 -57 3 -28 9 -49 14 -46 8 5 29 -58 29 -88 0 -10 4 -18 8 -18 5 0 9 -6 10
-12 4 -49 16 -98 23 -98 5 0 9 -6 9 -14 0 -22 49 -177 66 -208 8 -14 14 -35
14 -46 0 -12 5 -24 10 -27 6 -3 10 -14 10 -23 0 -9 6 -28 13 -42 8 -14 26 -59
42 -100 16 -41 43 -104 62 -140 18 -36 33 -72 33 -81 0 -9 7 -22 15 -29 8 -7
15 -20 15 -30 0 -10 7 -23 15 -30 8 -7 15 -18 15 -24 0 -17 44 -100 57 -109 7
-4 13 -22 13 -38 0 -17 4 -28 9 -25 5 3 15 -9 22 -27 7 -17 17 -36 22 -42 11
-12 55 -91 94 -165 15 -30 30 -57 33 -60 27 -27 50 -76 51 -107 1 -29 3 -33 7
-16 8 26 26 19 36 -14 4 -13 12 -23 17 -23 5 0 9 -11 9 -25 0 -14 3 -24 8 -24
20 3 32 -2 32 -14 0 -12 9 -26 50 -74 5 -7 10 -15 10 -18 0 -3 9 -16 20 -28
11 -12 18 -27 16 -34 -3 -7 -2 -12 2 -12 21 3 31 -3 38 -23 3 -12 19 -36 35
-52 16 -17 27 -37 24 -43 -2 -7 -1 -12 3 -12 25 4 34 -3 29 -21 -3 -11 -1 -18
4 -14 5 3 9 0 9 -5 0 -6 6 -11 13 -11 9 0 12 -12 11 -37 -2 -21 0 -27 3 -14 4
22 8 21 58 -33 31 -33 52 -63 49 -71 -4 -10 0 -12 18 -8 20 6 21 4 10 -9 -14
-17 -1 -34 17 -23 5 3 12 -4 16 -15 3 -11 13 -20 21 -20 8 0 14 -5 14 -11 0
-6 23 -33 50 -60 28 -27 50 -54 50 -59 0 -6 7 -10 15 -10 15 0 18 -9 16 -40 0
-10 1 -11 5 -2 9 20 27 14 21 -7 -3 -13 -1 -18 9 -14 7 2 19 -5 26 -16 7 -12
17 -21 22 -21 4 0 25 -18 46 -40 27 -29 33 -40 21 -41 -9 0 -1 -6 17 -12 18
-7 36 -17 40 -23 4 -6 15 -13 24 -17 10 -3 15 -12 12 -21 -3 -8 0 -17 7 -22 8
-4 10 -3 5 4 -13 21 10 13 30 -10 19 -22 19 -23 -1 -8 -18 14 -19 14 -7 -2 8
-10 20 -14 29 -11 12 5 15 2 10 -10 -4 -12 -1 -17 11 -17 9 0 33 -15 53 -34
20 -18 44 -36 54 -39 9 -4 14 -11 10 -16 -3 -5 5 -11 17 -13 14 -2 23 -10 23
-20 0 -9 4 -20 9 -25 5 -5 6 -2 1 6 -6 11 -4 13 9 8 10 -4 20 -7 22 -7 2 0 4
-5 4 -11 0 -5 -5 -7 -12 -3 -7 5 -8 3 -4 -5 5 -7 10 -10 13 -7 9 9 44 -14 38
-25 -4 -5 -3 -9 2 -8 28 5 45 -2 39 -17 -3 -8 -2 -12 4 -9 6 3 10 1 10 -5 0
-6 4 -9 9 -6 5 4 28 -11 51 -31 23 -21 46 -39 51 -39 5 -1 14 -2 19 -3 6 0 10
-6 10 -12 0 -5 -4 -7 -10 -4 -16 10 -11 -1 7 -16 11 -10 14 -10 9 -1 -12 19
12 14 34 -8 11 -11 24 -20 30 -20 5 0 10 -5 10 -11 0 -5 16 -17 35 -25 19 -8
35 -18 35 -23 0 -5 10 -11 23 -13 12 -2 21 -9 19 -16 -1 -6 6 -12 16 -12 18 0
46 -18 83 -52 11 -10 28 -18 39 -18 25 0 26 -17 3 -24 -15 -4 -14 -4 2 -4 35
3 83 -13 89 -28 3 -8 14 -14 24 -14 10 0 23 -5 29 -11 13 -13 45 -32 91 -53
17 -8 32 -20 32 -25 0 -6 11 -11 24 -11 14 0 31 -7 40 -15 8 -8 21 -15 30 -15
22 0 29 -18 9 -23 -10 -2 -4 -4 13 -4 17 0 51 -9 75 -21 24 -11 53 -24 64 -28
17 -6 15 -9 -15 -14 -32 -7 -30 -7 15 -7 31 0 68 -8 97 -21 26 -12 51 -22 56
-22 5 0 15 -7 22 -15 7 -8 23 -15 36 -15 33 0 39 -18 7 -23 -16 -2 -5 -4 22
-4 30 0 69 -9 97 -21 26 -12 54 -22 62 -22 31 0 15 -20 -16 -21 -32 -2 -32 -2
-5 -6 16 -3 34 1 42 7 9 7 15 8 20 0 3 -5 19 -10 35 -10 16 0 32 -4 35 -10 4
-6 -6 -10 -22 -10 -23 -1 -25 -2 -11 -11 12 -6 23 -6 35 1 14 9 41 4 117 -20
55 -17 102 -33 105 -35 2 -3 -18 -6 -45 -6 -42 -1 -45 -2 -19 -8 17 -4 40 -4
52 1 31 10 138 -6 129 -20 -3 -5 10 -8 28 -9 17 0 62 -10 100 -22 37 -12 89
-21 115 -21 25 -1 57 -7 71 -15 14 -8 43 -15 65 -16 22 0 51 -5 65 -9 19 -6 9
-8 -37 -9 -63 -1 -83 -13 -40 -25 12 -3 110 -6 217 -6 212 0 238 10 89 35
-259 44 -353 65 -290 65 20 0 87 -10 318 -46 51 -8 175 -19 275 -24 101 -6
219 -15 264 -20 103 -13 233 -13 359 0 55 5 183 15 285 20 102 6 208 15 235
21 50 10 321 49 339 49 55 0 -154 -45 -295 -64 -188 -24 -167 -35 68 -36 116
0 214 4 217 9 7 11 -17 21 -51 21 -33 0 -25 9 13 15 27 4 112 22 214 44 73 16
224 56 275 73 17 5 53 15 81 22 27 7 56 16 62 20 21 12 55 18 122 18 56 1 60
2 25 8 l-40 6 30 9 c17 5 49 17 72 27 22 10 53 19 67 20 14 1 28 8 30 15 3 7
16 13 29 13 13 0 27 4 32 9 6 5 28 14 50 21 22 7 51 19 65 28 13 8 45 15 70
15 32 0 38 2 20 6 -41 11 -4 25 64 24 49 0 54 1 26 7 l-35 6 50 24 c61 28 72
31 110 32 17 0 22 2 13 5 -10 2 -18 8 -17 11 0 4 48 31 107 60 59 29 125 64
147 78 44 26 82 44 95 44 4 0 11 7 14 16 4 9 9 14 13 11 3 -4 31 11 62 33 31
22 62 40 68 40 6 0 13 3 15 8 4 8 81 62 90 62 4 0 21 13 39 30 18 16 35 28 37
26 2 -2 14 6 26 18 29 26 104 78 109 74 2 -2 11 5 21 15 10 9 22 14 28 11 7
-4 8 -2 4 5 -4 6 0 14 9 18 10 3 29 17 43 30 19 18 27 20 34 11 5 -9 8 -6 8
10 0 12 6 22 13 22 6 1 23 14 37 30 13 17 28 30 32 30 5 0 21 12 36 27 49 50
94 83 103 77 5 -3 9 1 9 8 0 16 43 58 59 58 6 0 11 6 11 14 0 8 10 16 23 20
12 3 30 19 40 36 10 16 25 30 33 30 8 0 14 7 14 15 0 8 7 15 15 15 8 0 15 7
15 15 0 8 5 16 10 16 6 1 15 2 20 3 6 0 10 5 9 9 -2 16 53 65 67 60 8 -3 14 0
14 7 0 6 -5 8 -10 5 -5 -3 -10 -1 -10 4 0 6 5 12 10 12 6 1 14 2 19 3 5 0 13
5 18 10 5 5 3 6 -4 2 -26 -15 -11 7 37 54 27 27 50 52 50 56 0 4 16 22 35 41
19 19 35 37 35 41 0 4 29 38 65 77 36 38 65 73 65 77 0 5 7 8 16 8 8 0 13 4
10 9 -5 8 60 98 96 135 9 8 26 32 39 53 13 21 29 44 36 51 7 7 13 18 13 23 0
5 7 9 15 9 8 0 14 3 13 8 -1 8 13 45 21 52 10 9 31 44 44 73 6 15 15 27 19 27
4 0 15 14 23 30 9 18 21 28 27 24 7 -4 8 -3 4 4 -4 6 4 28 17 49 13 21 25 43
27 48 2 6 14 28 28 50 37 58 78 132 108 194 20 41 28 51 35 40 8 -11 9 -10 8
6 -3 24 3 38 72 180 53 109 53 110 60 75 7 -34 7 -33 7 10 -1 71 1 90 11 90 5
0 11 -8 14 -17 2 -10 4 1 4 25 1 23 5 48 10 55 5 6 16 28 23 47 7 19 22 55 33
80 11 24 20 49 21 55 7 34 32 103 43 120 7 11 13 29 13 40 0 11 6 29 14 40 7
11 16 34 19 50 6 32 7 35 26 105 7 25 14 52 16 60 2 8 8 28 14 43 6 16 11 41
11 57 0 46 18 44 23 -2 3 -33 4 -29 4 17 0 34 10 87 22 122 11 34 21 80 21
101 0 21 7 61 15 88 8 27 15 67 16 89 2 80 17 94 18 16 1 -64 3 -72 16 -61 12
10 15 47 15 216 0 123 -4 204 -10 204 -11 0 -29 -62 -31 -105 -1 -16 -5 -41
-10 -55 -8 -22 -8 -22 -4 7 6 43 23 253 37 453 17 260 20 419 9 495 -11 77
-24 418 -15 398 17 -37 21 9 21 227 0 193 -3 243 -14 252 -12 10 -14 1 -12
-50 3 -80 -8 -90 -16 -15 -3 32 -10 68 -15 80 -6 14 -6 25 0 28 6 4 9 34 8 68
l-1 62 -7 -65 c-6 -71 -12 -66 -28 25 -12 67 -35 165 -50 210 -6 17 -20 64
-32 105 -12 41 -26 84 -31 95 -16 36 -26 102 -24 151 1 27 0 34 -2 17 -5 -40
-23 -44 -23 -5 0 15 -4 34 -10 42 -5 9 -5 19 1 27 6 6 9 27 6 45 l-4 33 -1
-37 c-2 -46 -18 -50 -27 -8 -4 17 -14 45 -23 63 -10 19 -16 56 -16 92 1 48 0
53 -6 25 -6 -30 -8 -32 -14 -15 -4 11 -17 38 -28 59 -13 23 -21 58 -21 85 0
33 -2 39 -6 21 -11 -40 -24 -6 -24 64 0 46 -2 52 -6 26 -6 -33 -10 -28 -88
129 -58 118 -79 169 -73 181 5 9 5 22 0 30 -6 10 -9 7 -12 -11 -4 -26 -3 -27
-55 74 -9 17 -21 35 -27 39 -6 4 -10 29 -10 55 1 26 0 41 -3 33 -14 -45 -14
-45 -28 -20 -30 52 -44 88 -41 106 2 10 1 13 -1 7 -7 -21 -20 -15 -32 15 -6
15 -23 41 -36 56 -14 16 -25 35 -25 42 0 7 -6 19 -13 26 -28 28 -66 92 -60
101 3 6 1 7 -5 3 -16 -9 -34 28 -20 42 7 7 7 16 -1 29 -11 16 -11 16 -6 -4 11
-38 -18 -26 -45 18 -14 23 -24 45 -23 50 2 4 -4 6 -12 3 -9 -4 -15 0 -15 10 0
9 -4 16 -10 16 -12 0 -41 55 -33 64 4 3 -1 6 -10 6 -10 0 -17 4 -17 10 0 5
-10 18 -22 30 -12 11 -19 20 -16 20 3 0 -11 17 -31 39 -122 129 -146 162 -133
176 4 5 1 5 -5 1 -8 -4 -29 11 -55 39 -24 26 -64 68 -90 94 -27 27 -48 53 -48
60 0 6 -7 11 -15 11 -8 0 -15 7 -15 15 0 8 -4 15 -9 15 -12 0 -91 78 -91 89 0
5 -9 11 -21 14 -12 3 -18 10 -15 15 3 5 -4 12 -15 15 -14 4 -20 11 -16 21 4
10 -1 16 -16 18 -12 2 -21 9 -20 16 2 6 -4 12 -14 12 -9 0 -35 19 -57 42 -23
23 -43 42 -46 42 -3 0 -9 4 -15 8 -5 5 -21 18 -35 29 -14 11 -36 30 -50 42
-14 12 -45 35 -69 52 -24 16 -45 35 -48 42 -3 7 -10 13 -15 13 -17 0 -58 37
-50 45 4 5 1 5 -5 1 -12 -7 -22 -1 -64 37 -10 9 -23 17 -29 17 -5 0 -10 4 -10
8 0 5 -11 14 -25 20 -14 7 -31 17 -38 22 -48 41 -62 50 -73 50 -7 0 -17 6 -21
13 -9 14 -59 45 -85 54 -10 3 -18 12 -18 19 0 8 -8 14 -19 14 -25 0 -47 26
-29 34 7 3 4 4 -8 1 -26 -7 -54 3 -54 19 0 6 -10 13 -22 13 -13 1 -28 9 -34
18 -6 8 -17 15 -23 15 -18 0 -101 50 -101 61 0 5 -11 9 -24 9 -13 0 -29 7 -36
15 -7 8 -18 15 -24 15 -17 0 -100 44 -109 58 -4 6 -14 12 -21 12 -22 0 -127
50 -123 58 3 4 -9 8 -26 8 -16 1 -36 9 -42 18 -7 9 -20 16 -29 16 -10 0 -27 6
-39 12 -12 7 -38 18 -57 24 -19 6 -34 15 -33 20 1 5 -15 10 -35 11 -20 1 -42
9 -48 17 -6 9 -21 16 -32 16 -12 0 -36 6 -54 14 -18 8 -48 20 -65 26 -18 7
-31 16 -28 20 3 4 -18 10 -46 12 -28 3 -54 10 -58 15 -3 6 -26 13 -50 17 -55
8 -67 16 -50 28 10 7 7 8 -10 4 -31 -7 -123 13 -115 25 3 5 -19 9 -50 9 -30 0
-58 5 -61 10 -3 6 0 10 7 11 30 2 -41 17 -86 18 -42 1 -47 3 -36 16 7 9 19 14
26 11 7 -3 25 -1 41 3 22 6 15 8 -32 9 -33 0 -62 -3 -65 -7 -3 -4 -34 -4 -70
-1 -49 4 -59 7 -40 12 14 4 39 8 55 9 17 0 39 4 50 9 12 5 -45 9 -149 9 -151
1 -167 -1 -156 -15 20 -23 66 -39 185 -63 584 -119 1118 -323 1660 -634 213
-122 556 -366 784 -558 126 -105 373 -342 452 -434 24 -27 -29 20 -116 106
-242 236 -355 336 -525 465 -99 75 -138 104 -300 215 -98 68 -369 227 -515
303 -496 257 -1027 434 -1570 525 -450 75 -845 99 -1220 73 -633 -44 -1133
-154 -1680 -369 -1281 -504 -2346 -1510 -2924 -2761 -83 -180 -176 -416 -237
-602 -31 -94 -58 -169 -60 -167 -7 7 81 282 138 435 175 470 418 911 751 1362
164 222 279 354 501 575 548 546 1198 963 1916 1230 231 86 485 157 861 240
231 51 236 75 17 74 -101 0 -155 -4 -143 -9z m5225 -1825 c13 -14 21 -25 18
-25 -2 0 -15 11 -28 25 -13 14 -21 25 -18 25 2 0 15 -11 28 -25z m165 -194
c30 -39 55 -73 55 -76 0 -4 -10 6 -23 22 -76 93 -99 123 -94 123 4 0 31 -31
62 -69z m-7747 -30 c20 -11 149 -132 287 -270 l250 -251 3502 0 3503 0 0 -185
0 -185 -3503 0 -3502 0 -240 -241 c-132 -132 -260 -252 -285 -267 -53 -32
-127 -35 -180 -8 -53 27 -606 584 -625 628 -20 50 -19 104 4 153 21 45 576
603 626 629 42 21 118 20 163 -3z m7933 -218 c13 -16 12 -17 -3 -4 -10 7 -18
15 -18 17 0 8 8 3 21 -13z m173 -259 c3 -8 2 -12 -4 -9 -6 3 -10 10 -10 16 0
14 7 11 14 -7z m-6229 -1196 c3 -13 4 -124 3 -248 l-3 -225 -647 -3 -648 -2 0
-390 0 -390 588 -2 587 -3 3 -225 c1 -124 0 -235 -3 -247 l-5 -23 -585 0 -585
0 0 -600 0 -600 -300 0 -300 0 0 1483 c0 816 3 1487 7 1490 3 4 428 7 944 7
l939 0 5 -22z m2510 -233 l0 -250 -427 -3 -428 -2 0 -1235 0 -1235 -297 2
-298 3 -3 1232 -2 1233 -423 2 -422 3 -3 253 -2 252 1152 -2 1153 -3 0 -250z
m1725 244 c386 -31 673 -144 900 -356 288 -270 429 -731 390 -1281 -30 -432
-145 -725 -377 -956 -201 -201 -476 -320 -843 -366 -51 -6 -335 -10 -712 -10
l-628 0 0 1483 c0 816 3 1487 7 1490 11 11 1119 8 1263 -4z m-7823 -311 c-3
-8 -6 -5 -6 6 -1 11 2 17 5 13 3 -3 4 -12 1 -19z m-38 -168 c-13 -56 -25 -97
-27 -91 -5 14 38 204 45 198 2 -3 -6 -51 -18 -107z m10588 -242 c-3 -7 -5 -2
-5 12 0 14 2 19 5 13 2 -7 2 -19 0 -25z m10 -50 c-3 -7 -5 -2 -5 12 0 14 2 19
5 13 2 -7 2 -19 0 -25z m-10660 0 c-3 -8 -6 -5 -6 6 -1 11 2 17 5 13 3 -3 4
-12 1 -19z m10670 -60 c-3 -7 -5 -2 -5 12 0 14 2 19 5 13 2 -7 2 -19 0 -25z
m-10680 -10 c-3 -7 -5 -2 -5 12 0 14 2 19 5 13 2 -7 2 -19 0 -25z m10690 -50
c-3 -8 -6 -5 -6 6 -1 11 2 17 5 13 3 -3 4 -12 1 -19z m-30 -1780 c-3 -7 -5 -2
-5 12 0 14 2 19 5 13 2 -7 2 -19 0 -25z m-27 -149 c-5 -35 -19 -91 -30 -124
-23 -70 -21 -49 11 93 25 113 36 130 19 31z m-10451 -477 c13 -41 21 -76 18
-78 -6 -6 -52 136 -61 186 l-6 35 13 -35 c8 -19 24 -68 36 -108z m8744 -23
c58 -30 601 -569 627 -624 23 -47 25 -82 9 -140 -9 -33 -60 -89 -302 -333
-300 -301 -338 -332 -410 -332 -74 0 -105 24 -367 285 l-255 253 -3458 -5
-3457 -6 0 185 0 185 2498 6 c1373 4 2929 7 3457 7 l959 0 256 253 c140 139
271 261 290 270 48 23 103 21 153 -4z m1567 -16 c-11 -17 -11 -17 -6 0 3 10 6
24 7 30 0 9 2 9 5 0 3 -7 0 -20 -6 -30z m-10235 -183 c124 -354 281 -674 528
-1072 37 -60 65 -108 63 -108 -3 0 -26 30 -52 68 -123 174 -368 642 -472 902
-64 158 -122 317 -122 333 1 22 20 -20 55 -123z m10205 85 c-16 -47 -23 -40
-9 9 6 21 13 36 16 33 3 -3 0 -22 -7 -42z m-29 -76 c-5 -13 -10 -19 -10 -12
-1 15 10 45 15 40 3 -2 0 -15 -5 -28z m-40 -106 c-12 -20 -14 -14 -5 12 4 9 9
14 11 11 3 -2 0 -13 -6 -23z m-30 -80 c-12 -20 -14 -14 -5 12 4 9 9 14 11 11
3 -2 0 -13 -6 -23z m-131 -301 c0 -5 -7 -17 -15 -28 -14 -18 -14 -17 -4 9 12
27 19 34 19 19z m-39 -79 c-12 -20 -14 -14 -5 12 4 9 9 14 11 11 3 -2 0 -13
-6 -23z m-40 -76 c-10 -9 -11 -8 -5 6 3 10 9 15 12 12 3 -3 0 -11 -7 -18z
m-30 -60 c-10 -9 -11 -8 -5 6 3 10 9 15 12 12 3 -3 0 -11 -7 -18z m-28 -52
c-3 -9 -8 -14 -10 -11 -3 3 -2 9 2 15 9 16 15 13 8 -4z m-203 -344 c-5 -11
-15 -23 -22 -27 -7 -5 -8 -2 -3 7 21 37 44 55 25 20z m-47 -72 c-10 -17 -24
-36 -32 -42 -12 -10 -13 -9 -6 3 14 24 48 70 52 70 2 0 -4 -14 -14 -31z
m-8937 -96 c26 -38 59 -84 73 -103 15 -20 19 -29 8 -21 -23 19 -144 191 -133
191 2 0 26 -30 52 -67z m8888 25 c-33 -54 -105 -142 -78 -95 15 26 76 107 80
107 3 0 2 -6 -2 -12z m-145 -203 c-18 -25 -41 -53 -53 -62 -11 -10 2 10 28 45
54 71 73 85 25 17z m-8548 -87 c19 -35 1 -17 -40 40 -41 56 -41 56 -6 17 20
-22 41 -48 46 -57z m8450 -36 c-5 -10 -28 -38 -51 -62 -46 -48 -36 -31 20 38
37 45 46 53 31 24z m-8341 -97 c13 -14 21 -25 18 -25 -2 0 -15 11 -28 25 -13
14 -21 25 -18 25 2 0 15 -11 28 -25z m8100 -180 c-24 -25 -46 -45 -49 -45 -3
0 15 20 39 45 24 25 46 45 49 45 3 0 -15 -20 -39 -45z m-140 -150 c-52 -52
-95 -93 -97 -92 -4 5 172 187 182 187 5 0 -33 -43 -85 -95z m-7400 -240 c13
-14 21 -25 18 -25 -2 0 -15 11 -28 25 -13 14 -21 25 -18 25 2 0 15 -11 28 -25z
m361 -292 c13 -16 12 -17 -3 -4 -10 7 -18 15 -18 17 0 8 8 3 21 -13z m149
-109 c0 -8 -33 13 -65 41 -25 22 -23 22 18 -5 26 -17 47 -33 47 -36z m123 -75
c37 -23 70 -46 74 -52 4 -6 -11 0 -33 13 -70 42 -154 101 -154 107 0 3 10 -2
23 -10 12 -9 52 -35 90 -58z m5877 -4 c0 -2 -10 -9 -22 -15 -22 -11 -22 -10
-4 4 21 17 26 19 26 11z m-50 -30 c0 -14 -276 -173 -470 -270 -144 -72 -361
-169 -470 -210 -19 -7 -53 -20 -75 -28 -48 -19 -92 -31 -85 -24 6 6 234 97
244 97 4 0 82 34 174 76 219 100 423 207 587 308 98 60 95 58 95 51z m-5640
-85 c47 -31 311 -172 408 -217 371 -174 761 -308 1157 -399 133 -30 143 -45
13 -19 -255 50 -707 196 -973 314 -22 10 -58 26 -80 36 -166 72 -605 310 -622
338 -6 10 38 -14 97 -53z m4530 -454 c0 -2 -35 -15 -77 -30 -123 -41 -166 -54
-203 -60 l-35 -6 35 14 c19 7 69 23 110 36 41 12 91 28 110 35 35 14 60 18 60
11z m-323 -102 c-8 -8 -126 -41 -195 -55 -90 -18 -69 -2 27 20 50 12 101 26
113 31 26 10 64 13 55 4z m-283 -74 c-28 -11 -121 -24 -113 -16 7 7 83 24 114
24 19 1 19 0 -1 -8z"/>
<path d="M7570 5846 l0 -986 214 0 c519 0 720 52 901 234 152 153 217 343 232
676 11 265 -28 497 -111 665 -95 191 -236 298 -476 363 -91 24 -109 26 -427
30 l-333 4 0 -986z"/>
<path d="M4409 11008 c23 -6 37 -6 44 1 8 8 -2 11 -33 10 l-45 -1 34 -10z"/>
<path d="M7008 10983 c7 -3 16 -2 19 1 4 3 -2 6 -13 5 -11 0 -14 -3 -6 -6z"/>
<path d="M4143 10943 c9 -2 23 -2 30 0 6 3 -1 5 -18 5 -16 0 -22 -2 -12 -5z"/>
<path d="M7108 10943 c6 -2 18 -2 25 0 6 3 1 5 -13 5 -14 0 -19 -2 -12 -5z"/>
<path d="M3988 10913 c12 -2 30 -2 40 0 9 3 -1 5 -23 4 -22 0 -30 -2 -17 -4z"/>
<path d="M7243 10913 c9 -2 25 -2 35 0 9 3 1 5 -18 5 -19 0 -27 -2 -17 -5z"/>
<path d="M3830 10840 c-8 -5 -10 -10 -5 -10 6 0 17 5 25 10 8 5 11 10 5 10 -5
0 -17 -5 -25 -10z"/>
<path d="M7428 10843 c7 -3 16 -2 19 1 4 3 -2 6 -13 5 -11 0 -14 -3 -6 -6z"/>
<path d="M3708 10813 c7 -3 16 -2 19 1 4 3 -2 6 -13 5 -11 0 -14 -3 -6 -6z"/>
<path d="M7517 10809 c8 -8 16 -8 30 0 16 9 14 10 -11 11 -22 0 -27 -3 -19
-11z"/>
<path d="M3533 10743 c9 -2 25 -2 35 0 9 3 1 5 -18 5 -19 0 -27 -2 -17 -5z"/>
<path d="M7686 10740 c7 -7 19 -7 35 -1 23 9 22 10 -10 10 -24 1 -32 -2 -25
-9z"/>
<path d="M3468 10713 c7 -3 16 -2 19 1 4 3 -2 6 -13 5 -11 0 -14 -3 -6 -6z"/>
<path d="M3313 10643 c9 -2 23 -2 30 0 6 3 -1 5 -18 5 -16 0 -22 -2 -12 -5z"/>
<path d="M7928 10643 c6 -2 18 -2 25 0 6 3 1 5 -13 5 -14 0 -19 -2 -12 -5z"/>
<path d="M3188 10573 c7 -3 16 -2 19 1 4 3 -2 6 -13 5 -11 0 -14 -3 -6 -6z"/>
<path d="M8054 10568 c9 -5 23 -5 32 0 12 6 7 9 -16 9 -23 0 -28 -3 -16 -9z"/>
<path d="M8138 10543 c7 -3 16 -2 19 1 4 3 -2 6 -13 5 -11 0 -14 -3 -6 -6z"/>
<path d="M8258 10473 c6 -2 18 -2 25 0 6 3 1 5 -13 5 -14 0 -19 -2 -12 -5z"/>
<path d="M8428 10373 c7 -3 16 -2 19 1 4 3 -2 6 -13 5 -11 0 -14 -3 -6 -6z"/>
<path d="M8538 10303 c6 -2 18 -2 25 0 6 3 1 5 -13 5 -14 0 -19 -2 -12 -5z"/>
<path d="M8678 10203 c6 -2 18 -2 25 0 6 3 1 5 -13 5 -14 0 -19 -2 -12 -5z"/>
<path d="M8740 10165 c0 -8 2 -15 4 -15 2 0 6 7 10 15 3 8 1 15 -4 15 -6 0
-10 -7 -10 -15z"/>
<path d="M8783 10133 c9 -2 23 -2 30 0 6 3 -1 5 -18 5 -16 0 -22 -2 -12 -5z"/>
<path d="M2408 10103 c7 -3 16 -2 19 1 4 3 -2 6 -13 5 -11 0 -14 -3 -6 -6z"/>
<path d="M8835 10100 c4 -6 11 -8 16 -5 14 9 11 15 -7 15 -8 0 -12 -5 -9 -10z"/>
<path d="M8975 10000 c4 -6 11 -8 16 -5 14 9 11 15 -7 15 -8 0 -12 -5 -9 -10z"/>
<path d="M2198 9933 c7 -3 16 -2 19 1 4 3 -2 6 -13 5 -11 0 -14 -3 -6 -6z"/>
<path d="M9170 9824 c0 -14 3 -14 15 -4 8 7 15 14 15 16 0 2 -7 4 -15 4 -8 0
-15 -7 -15 -16z"/>
<path d="M9200 9796 c0 -2 8 -10 18 -17 15 -13 16 -12 3 4 -13 16 -21 21 -21
13z"/>
<path d="M1998 9763 c7 -3 16 -2 19 1 4 3 -2 6 -13 5 -11 0 -14 -3 -6 -6z"/>
<path d="M9811 9184 c0 -11 3 -14 6 -6 3 7 2 16 -1 19 -3 4 -6 -2 -5 -13z"/>
<path d="M9841 9144 c0 -11 3 -14 6 -6 3 7 2 16 -1 19 -3 4 -6 -2 -5 -13z"/>
<path d="M1351 9084 c0 -11 3 -14 6 -6 3 7 2 16 -1 19 -3 4 -6 -2 -5 -13z"/>
<path d="M1150 8809 c0 -11 4 -18 10 -14 5 3 7 12 3 20 -7 21 -13 19 -13 -6z"/>
<path d="M1052 8680 c0 -14 2 -19 5 -12 2 6 2 18 0 25 -3 6 -5 1 -5 -13z"/>
<path d="M10252 8610 c0 -14 2 -19 5 -12 2 6 2 18 0 25 -3 6 -5 1 -5 -13z"/>
<path d="M882 8395 c0 -16 2 -22 5 -12 2 9 2 23 0 30 -3 6 -5 -1 -5 -18z"/>
<path d="M10522 8130 c0 -14 2 -19 5 -12 2 6 2 18 0 25 -3 6 -5 1 -5 -13z"/>
<path d="M712 8090 c0 -19 2 -27 5 -17 2 9 2 25 0 35 -3 9 -5 1 -5 -18z"/>
<path d="M10552 8050 c0 -19 2 -27 5 -17 2 9 2 25 0 35 -3 9 -5 1 -5 -18z"/>
<path d="M10592 8000 c0 -14 2 -19 5 -12 2 6 2 18 0 25 -3 6 -5 1 -5 -13z"/>
<path d="M681 7984 c0 -11 3 -14 6 -6 3 7 2 16 -1 19 -3 4 -6 -2 -5 -13z"/>
<path d="M10693 7775 c0 -22 2 -30 4 -17 2 12 2 30 0 40 -3 9 -5 -1 -4 -23z"/>
<path d="M542 7720 c0 -19 2 -27 5 -17 2 9 2 25 0 35 -3 9 -5 1 -5 -18z"/>
<path d="M472 7520 c0 -14 2 -19 5 -12 2 6 2 18 0 25 -3 6 -5 1 -5 -13z"/>
<path d="M441 7414 c0 -11 3 -14 6 -6 3 7 2 16 -1 19 -3 4 -6 -2 -5 -13z"/>
<path d="M10863 7295 c0 -27 2 -38 4 -22 2 15 2 37 0 50 -2 12 -4 0 -4 -28z"/>
<path d="M373 7230 c0 -25 2 -35 4 -22 2 12 2 32 0 45 -2 12 -4 2 -4 -23z"/>
<path d="M10892 7190 c-1 -44 1 -50 9 -32 5 15 6 36 0 55 -8 29 -9 27 -9 -23z"/>
<path d="M10923 7065 c0 -22 2 -30 4 -17 2 12 2 30 0 40 -3 9 -5 -1 -4 -23z"/>
<path d="M342 7070 c0 -14 2 -19 5 -12 2 6 2 18 0 25 -3 6 -5 1 -5 -13z"/>
<path d="M10963 6950 c0 -30 2 -43 4 -27 2 15 2 39 0 55 -2 15 -4 2 -4 -28z"/>
<path d="M311 6944 c0 -11 3 -14 6 -6 3 7 2 16 -1 19 -3 4 -6 -2 -5 -13z"/>
<path d="M273 6820 c0 -25 2 -35 4 -22 2 12 2 32 0 45 -2 12 -4 2 -4 -23z"/>
<path d="M11031 4544 c0 -11 3 -14 6 -6 3 7 2 16 -1 19 -3 4 -6 -2 -5 -13z"/>
<path d="M10992 4470 l0 -85 9 61 c6 38 5 71 0 85 -7 18 -10 2 -9 -61z"/>
<path d="M272 4445 c0 -16 2 -22 5 -12 2 9 2 23 0 30 -3 6 -5 -1 -5 -18z"/>
<path d="M10963 4325 c0 -22 2 -30 4 -17 2 12 2 30 0 40 -3 9 -5 -1 -4 -23z"/>
<path d="M311 4314 c0 -11 3 -14 6 -6 3 7 2 16 -1 19 -3 4 -6 -2 -5 -13z"/>
<path d="M341 4214 c0 -11 3 -14 6 -6 3 7 2 16 -1 19 -3 4 -6 -2 -5 -13z"/>
<path d="M10891 4100 c0 -43 2 -51 10 -37 7 12 8 30 1 55 -10 37 -10 37 -11
-18z"/>
<path d="M373 4055 c0 -22 2 -30 4 -17 2 12 2 30 0 40 -3 9 -5 -1 -4 -23z"/>
<path d="M10863 3970 c0 -30 2 -43 4 -27 2 15 2 39 0 55 -2 15 -4 2 -4 -28z"/>
<path d="M10822 3880 c0 -19 2 -27 5 -17 2 9 2 25 0 35 -3 9 -5 1 -5 -18z"/>
<path d="M443 3855 c0 -22 2 -30 4 -17 2 12 2 30 0 40 -3 9 -5 -1 -4 -23z"/>
<path d="M10793 3785 c0 -22 2 -30 4 -17 2 12 2 30 0 40 -3 9 -5 -1 -4 -23z"/>
<path d="M10722 3610 c0 -19 2 -27 5 -17 2 9 2 25 0 35 -3 9 -5 1 -5 -18z"/>
<path d="M10693 3515 c0 -22 2 -30 4 -17 2 12 2 30 0 40 -3 9 -5 -1 -4 -23z"/>
<path d="M612 3430 c0 -14 2 -19 5 -12 2 6 2 18 0 25 -3 6 -5 1 -5 -13z"/>
<path d="M681 3304 c0 -11 3 -14 6 -6 3 7 2 16 -1 19 -3 4 -6 -2 -5 -13z"/>
<path d="M10592 3290 c0 -14 2 -19 5 -12 2 6 2 18 0 25 -3 6 -5 1 -5 -13z"/>
<path d="M10551 3244 c0 -11 3 -14 6 -6 3 7 2 16 -1 19 -3 4 -6 -2 -5 -13z"/>
<path d="M10522 3160 c0 -14 2 -19 5 -12 2 6 2 18 0 25 -3 6 -5 1 -5 -13z"/>
<path d="M782 3095 c0 -16 2 -22 5 -12 2 9 2 23 0 30 -3 6 -5 -1 -5 -18z"/>
<path d="M10452 3035 c0 -16 2 -22 5 -12 2 9 2 23 0 30 -3 6 -5 -1 -5 -18z"/>
<path d="M882 2905 c0 -16 2 -22 5 -12 2 9 2 23 0 30 -3 6 -5 -1 -5 -18z"/>
<path d="M10352 2855 c0 -16 2 -22 5 -12 2 9 2 23 0 30 -3 6 -5 -1 -5 -18z"/>
<path d="M10321 2784 c0 -11 3 -14 6 -6 3 7 2 16 -1 19 -3 4 -6 -2 -5 -13z"/>
<path d="M10252 2685 c0 -16 2 -22 5 -12 2 9 2 23 0 30 -3 6 -5 -1 -5 -18z"/>
<path d="M10081 2444 c0 -11 3 -14 6 -6 3 7 2 16 -1 19 -3 4 -6 -2 -5 -13z"/>
<path d="M9841 2144 c0 -11 3 -14 6 -6 3 7 2 16 -1 19 -3 4 -6 -2 -5 -13z"/>
<path d="M2138 1443 c7 -3 16 -2 19 1 4 3 -2 6 -13 5 -11 0 -14 -3 -6 -6z"/>
<path d="M9138 1443 c7 -3 16 -2 19 1 4 3 -2 6 -13 5 -11 0 -14 -3 -6 -6z"/>
<path d="M2438 1203 c7 -3 16 -2 19 1 4 3 -2 6 -13 5 -11 0 -14 -3 -6 -6z"/>
<path d="M8828 1203 c6 -2 18 -2 25 0 6 3 1 5 -13 5 -14 0 -19 -2 -12 -5z"/>
<path d="M8638 1073 c7 -3 16 -2 19 1 4 3 -2 6 -13 5 -11 0 -14 -3 -6 -6z"/>
<path d="M8588 1033 c7 -3 16 -2 19 1 4 3 -2 6 -13 5 -11 0 -14 -3 -6 -6z"/>
<path d="M8528 1003 c7 -3 16 -2 19 1 4 3 -2 6 -13 5 -11 0 -14 -3 -6 -6z"/>
<path d="M8428 933 c6 -2 18 -2 25 0 6 3 1 5 -13 5 -14 0 -19 -2 -12 -5z"/>
<path d="M8368 903 c7 -3 16 -2 19 1 4 3 -2 6 -13 5 -11 0 -14 -3 -6 -6z"/>
<path d="M8248 833 c6 -2 18 -2 25 0 6 3 1 5 -13 5 -14 0 -19 -2 -12 -5z"/>
<path d="M3148 763 c7 -3 16 -2 19 1 4 3 -2 6 -13 5 -11 0 -14 -3 -6 -6z"/>
<path d="M8123 763 c9 -2 23 -2 30 0 6 3 -1 5 -18 5 -16 0 -22 -2 -12 -5z"/>
<path d="M7993 693 c9 -2 23 -2 30 0 6 3 -1 5 -18 5 -16 0 -22 -2 -12 -5z"/>
<path d="M3488 593 c7 -3 16 -2 19 1 4 3 -2 6 -13 5 -11 0 -14 -3 -6 -6z"/>
<path d="M7740 596 c0 -9 37 -12 55 -5 15 6 11 8 -17 8 -21 1 -38 -1 -38 -3z"/>
<path d="M7668 563 c12 -2 32 -2 45 0 12 2 2 4 -23 4 -25 0 -35 -2 -22 -4z"/>
<path d="M7482 489 c11 -6 29 -6 50 0 32 9 31 9 -17 10 -38 0 -46 -2 -33 -10z"/>
<path d="M3938 423 c12 -2 30 -2 40 0 9 3 -1 5 -23 4 -22 0 -30 -2 -17 -4z"/>
<path d="M7282 420 c10 -6 31 -7 55 -1 38 9 38 9 -17 10 -40 0 -50 -2 -38 -9z"/>
<path d="M7150 390 c18 -12 68 -12 95 0 14 6 0 9 -45 9 -45 1 -60 -2 -50 -9z"/>
<path d="M7046 355 c10 -8 24 -14 29 -14 6 0 19 6 29 14 18 14 16 15 -29 15
-45 0 -47 -1 -29 -15z"/>
<path d="M4274 320 c17 -6 36 -5 45 0 11 7 3 9 -29 9 -42 -1 -43 -1 -16 -9z"/>
<path d="M6910 320 c18 -12 78 -12 105 0 14 6 -2 9 -50 9 -49 1 -65 -2 -55 -9z"/>
<path d="M4455 290 c39 -4 74 -4 80 1 5 5 -24 8 -70 8 l-80 -2 70 -7z"/>
<path d="M6768 290 c24 -3 60 -3 80 1 28 5 16 7 -43 7 -66 0 -72 -2 -37 -8z"/>
<path d="M6748 253 c7 -3 16 -2 19 1 4 3 -2 6 -13 5 -11 0 -14 -3 -6 -6z"/>
</g>
</svg>
